<?xml version="1.0" encoding="utf-8"?>
<!-- Generator: Adobe Illustrator 19.1.0, SVG Export Plug-In . SVG Version: 6.00 Build 0)  -->
<svg version="1.1" id="Content" xmlns="http://www.w3.org/2000/svg" xmlns:xlink="http://www.w3.org/1999/xlink" x="0px" y="0px"
	 viewBox="0 0 841.9 595.3" enable-background="new 0 0 841.9 595.3" xml:space="preserve">
<polygon opacity="0.4" fill="#575756" points="686.9,402.1 420.9,453.5 154.9,402.1 154.9,144.5 686.9,144.5 "/>
<polygon fill="#FFFFFF" points="686.9,398.1 420.9,449.5 154.9,398.1 154.9,140.5 686.9,140.5 "/>
<g>
	<g>
		<linearGradient id="SVGID_1_" gradientUnits="userSpaceOnUse" x1="469.5613" y1="232.482" x2="502.2406" y2="232.482">
			<stop  offset="0" style="stop-color:#E30613"/>
			<stop  offset="0.2613" style="stop-color:#E5231D"/>
			<stop  offset="0.5153" style="stop-color:#E73629"/>
			<stop  offset="1" style="stop-color:#E5231B"/>
		</linearGradient>
		<path fill="url(#SVGID_1_)" d="M502.1,241.4c-0.9-3.5-8.7-6.8-16.1-6.8c-7.6,0-15.4,3.4-16.2,6.8c-0.6-4.7,0-9.4,1.7-12
			c0,0,0,0,0,0c0,0,0,0,0,0c0.2-0.3,0.4-0.5,0.6-0.8c2.5-3.2,6.9-5,13.9-5c7,0,11.4,1.8,13.8,5c0,0,0,0,0,0c0.2,0.3,0.4,0.5,0.6,0.8
			C502.3,232.3,502.4,237.8,502.1,241.4z"/>
		<linearGradient id="SVGID_2_" gradientUnits="userSpaceOnUse" x1="510.5717" y1="297.5594" x2="458.422" y2="253.1182">
			<stop  offset="0" style="stop-color:#E4211A"/>
			<stop  offset="0.1924" style="stop-color:#DE201A"/>
			<stop  offset="0.4363" style="stop-color:#CB1F18"/>
			<stop  offset="0.7068" style="stop-color:#AE1C16"/>
			<stop  offset="0.8776" style="stop-color:#981914"/>
			<stop  offset="1" style="stop-color:#E4211A"/>
		</linearGradient>
		<path fill="url(#SVGID_2_)" d="M469.7,238.2c0-3.5,0.3-6.4,1.8-8.8c-9.4,13.6-8.7,23.8-8.7,24.1c0,0,0,0,0,0c0,0.3,0,0.5,0,0.7
			c0,18.4,47.7,78.2,47.7,78.2l2-11.3l10.4-0.9C522.9,320.1,469.7,255.6,469.7,238.2z"/>
		<linearGradient id="SVGID_3_" gradientUnits="userSpaceOnUse" x1="442.9986" y1="300.455" x2="518.7415" y2="261.825">
			<stop  offset="0" style="stop-color:#E41817"/>
			<stop  offset="0.3853" style="stop-color:#E41C1A"/>
			<stop  offset="0.7551" style="stop-color:#E52420"/>
			<stop  offset="0.8776" style="stop-color:#8C2727"/>
			<stop  offset="1" style="stop-color:#E4211A"/>
		</linearGradient>
		<path fill="url(#SVGID_3_)" d="M500.4,229.4c10.3,20.5-51,90.6-51,90.6l11.1-0.4l1.8,12.7c0,0,46.8-58.6,46.8-78.2
			c0-0.2,0-0.5,0-0.8C509.2,253.4,510,243.2,500.4,229.4z"/>
		<linearGradient id="SVGID_4_" gradientUnits="userSpaceOnUse" x1="472.9075" y1="265.1628" x2="483.777" y2="280.9575">
			<stop  offset="0" style="stop-color:#FFFFFF"/>
			<stop  offset="1" style="stop-color:#8D3637"/>
		</linearGradient>
		<path opacity="0.4" fill="url(#SVGID_4_)" d="M476.8,285.1l9.5-13.6l-8.5-13.5l-9.7,11.8C468.1,269.8,473.5,279.7,476.8,285.1z"/>
		<linearGradient id="SVGID_5_" gradientUnits="userSpaceOnUse" x1="498.892" y1="302.2151" x2="485.5629" y2="290.602">
			<stop  offset="0" style="stop-color:#FFFFFF"/>
			<stop  offset="1" style="stop-color:#A96761"/>
		</linearGradient>
		<polygon opacity="0.4" fill="url(#SVGID_5_)" points="486.3,300 495.8,285.3 505.1,298.1 495.9,313.8 		"/>
		<g>
			<path fill="#91312F" d="M475.5,286.9c0,0,2.4-3.2,5.8-8.2c3.4-5,7.8-11.7,11.6-18.8c1.9-3.5,3.7-7.1,5.1-10.6
				c1.4-3.5,2.5-6.9,3-9.8c0.3-1.5,0.4-2.9,0.5-4.1c0.1-1.2,0-2.3-0.2-3.2c-0.2-0.9-0.3-1.5-0.5-2c-0.2-0.4-0.2-0.7-0.2-0.7
				s0.1,0.2,0.2,0.7c0.2,0.4,0.3,1.1,0.5,2c0.1,0.9,0.3,1.9,0.2,3.2c0,1.2-0.2,2.6-0.4,4.1c-0.5,3-1.6,6.4-3,9.9
				c-1.4,3.5-3.1,7.1-5,10.7c-3.8,7.1-8.2,13.8-11.7,18.8c-1.7,2.5-3.2,4.5-4.3,5.9C476.1,286.1,475.5,286.9,475.5,286.9z"/>
		</g>
		<g>
			<path fill="#91312F" d="M476,225.5c0,0-0.3,0.2-0.9,0.5c-0.6,0.4-1.3,1-2.1,1.8c-0.8,0.8-1.6,1.9-2.2,3.2c-0.5,1.3-0.9,2.8-1,4.3
				c-0.1,0.8-0.1,1.5-0.1,2.3c0,0.8,0.1,1.5,0.2,2.2c0.1,0.7,0.2,1.4,0.4,2c0.2,0.6,0.3,1.2,0.5,1.8c0.3,1.1,0.7,2,1,2.6
				c0.3,0.6,0.4,1,0.4,1s-0.2-0.3-0.5-1c-0.2-0.3-0.3-0.7-0.5-1.1c-0.2-0.4-0.4-0.9-0.6-1.5c-0.2-0.5-0.4-1.1-0.5-1.8
				c-0.1-0.6-0.3-1.3-0.4-2c-0.1-0.7-0.2-1.5-0.2-2.2c0-0.8,0-1.5,0-2.3c0.1-1.5,0.5-3.1,1.1-4.4c0.6-1.3,1.4-2.4,2.2-3.3
				c0.8-0.8,1.6-1.4,2.2-1.7C475.6,225.6,476,225.5,476,225.5z"/>
		</g>
	</g>
	<g>
		<path fill="#E6332A" d="M206.3,217h11.1v19.9h20.4V217H249v50.4h-11.1v-20.2h-20.4v20.2h-11.1V217z"/>
		<path fill="#E6332A" d="M255.7,217h11.1v50.4h-11.1V217z"/>
		<path fill="#E6332A" d="M268.1,217h12.2l13.2,35.5l13.2-35.5h12l-20.4,50.8h-9.8L268.1,217z"/>
		<path fill="#E6332A" d="M315.6,242.3v-0.1c0-13.8,10.2-26.1,25.4-26.1s25.3,12.2,25.3,25.9v0.1c0,13.8-10.2,26.1-25.4,26.1
			C325.6,268.3,315.6,256.1,315.6,242.3z M362.4,242.3v-0.1c0-12.5-9.1-22.7-21.5-22.7s-21.4,10.1-21.4,22.5v0.1
			c0,12.5,9.1,22.7,21.5,22.7S362.4,254.8,362.4,242.3z"/>
		<path fill="#E6332A" d="M371.6,253.1v-22.5h3.5v21.8c0,7.6,4.2,12.5,11.7,12.5c7.2,0,12.7-5.5,12.7-13.1v-21.2h3.5v36.7h-3.5v-6.8
			c-2.4,4.3-6.6,7.7-13.2,7.7C377,268.3,371.6,261.9,371.6,253.1z"/>
		<path fill="#E6332A" d="M411,258v-24.1h-5.3v-3.2h5.3v-11.7h3.5v11.7h12.9v3.2h-12.9v23.7c0,5.3,3.1,7.1,7.3,7.1
			c1.8,0,3.3-0.4,5.4-1.3v3.3c-1.9,0.9-3.7,1.3-6,1.3C415.6,268.1,411,265,411,258z"/>
		<path fill="#E6332A" d="M426,249.2V249c0-10.3,8.2-19.2,18.7-19.2c6.9,0,11.2,3.2,14.7,6.8l-2.5,2.6c-3.2-3.2-6.8-6-12.2-6
			c-8.4,0-14.8,7-14.8,15.8v0.1c0,8.9,6.7,15.9,15.1,15.9c5.2,0,9.2-2.7,12.3-6.1l2.4,2.2c-3.7,4.2-8.2,7.3-15,7.3
			C434.1,268.3,426,259.5,426,249.2z"/>
		<path fill="#E6332A" d="M514.6,230.7h3.5v6.6c2.4-3.8,5.7-7.4,12.2-7.4c6.4,0,10.4,3.7,12.4,7.9c2.4-4.1,6.3-7.9,13.3-7.9
			c8.7,0,14.1,6.1,14.1,15.3v22.2h-3.5v-21.8c0-7.9-4.1-12.5-10.9-12.5c-6.2,0-11.6,4.8-11.6,13v21.4h-3.5v-22
			c0-7.6-4.2-12.3-10.7-12.3s-11.7,5.8-11.7,13.2v21.2h-3.5V230.7z"/>
		<path fill="#E6332A" d="M574,249.1V249c0-10.7,7.5-19.2,17.4-19.2c10.3,0,16.8,8.4,16.8,19.2c0,0.6,0,0.9-0.1,1.4h-30.5
			c0.6,9.1,7.2,14.5,14.4,14.5c5.7,0,9.6-2.5,12.6-5.8l2.4,2.2c-3.7,4-8.1,6.9-15.2,6.9C582.4,268.3,574,260.6,574,249.1z
			 M604.5,247.3c-0.5-7.4-4.8-14.3-13.2-14.3c-7.3,0-12.9,6.1-13.5,14.3H604.5z"/>
		<path fill="#E6332A" d="M608.8,262.8l2.1-2.8c4,3.1,8.5,4.8,13.2,4.8c5,0,8.9-2.7,8.9-7v-0.1c0-4.3-4.6-5.9-9.7-7.3
			c-6-1.7-12.6-3.5-12.6-10.1v-0.1c0-5.9,5-10.2,12.1-10.2c4.4,0,9.4,1.6,13,4l-1.9,3c-3.4-2.2-7.4-3.7-11.3-3.7
			c-5,0-8.4,2.7-8.4,6.4v0.1c0,4.1,5,5.6,10.2,7.1c5.9,1.7,12.1,3.8,12.1,10.3v0.1c0,6.6-5.6,10.7-12.7,10.7
			C618.6,268.1,612.7,266,608.8,262.8z"/>
	</g>
	
		<text transform="matrix(1 0 0 1 205.3363 290.3563)" fill="#9D9D9C" font-family="'ProximaNova-Bold'" font-size="15px" letter-spacing="1">Beyond viral suppression</text>
</g>
</svg>
